<mxfile host="app.diagrams.net" modified="2024-05-29T11:10:33.837Z" agent="Mozilla/5.0 (Macintosh; Intel Mac OS X 10_15_7) AppleWebKit/537.36 (KHTML, like Gecko) Chrome/125.0.0.0 Safari/537.36" etag="KfwR1ep6wKNVPG0O60GD" version="24.4.4" type="device" pages="2">
  <diagram name="Page-1" id="qiiXFo298tT73NPJQcg8">
    <mxGraphModel dx="2261" dy="761" grid="1" gridSize="10" guides="1" tooltips="1" connect="1" arrows="1" fold="1" page="1" pageScale="1" pageWidth="827" pageHeight="1169" math="0" shadow="0">
      <root>
        <mxCell id="0" />
        <mxCell id="1" parent="0" />
        <mxCell id="zLN3DuiSg5_N4A_2sXVN-1" value="&lt;font style=&quot;font-size: 18px;&quot;&gt;FR&lt;/font&gt;&lt;div&gt;&lt;font style=&quot;font-size: 18px;&quot;&gt;pick up color /&amp;nbsp;&lt;/font&gt;&lt;span style=&quot;font-size: 18px; background-color: initial;&quot;&gt;save color&lt;/span&gt;&lt;/div&gt;&lt;div&gt;&lt;font style=&quot;font-size: 18px;&quot;&gt;share color via email&lt;/font&gt;&lt;/div&gt;&lt;div&gt;&lt;font style=&quot;font-size: 18px;&quot;&gt;user access table&lt;/font&gt;&lt;/div&gt;" style="text;html=1;align=center;verticalAlign=middle;resizable=0;points=[];autosize=1;strokeColor=none;fillColor=none;" parent="1" vertex="1">
          <mxGeometry x="-145" y="90" width="220" height="100" as="geometry" />
        </mxCell>
        <mxCell id="zLN3DuiSg5_N4A_2sXVN-2" value="&lt;font style=&quot;font-size: 18px;&quot;&gt;NFR&lt;/font&gt;&lt;div&gt;&lt;font style=&quot;font-size: 18px;&quot;&gt;scalable&lt;/font&gt;&lt;/div&gt;&lt;div&gt;&lt;font style=&quot;font-size: 18px;&quot;&gt;available&lt;/font&gt;&lt;/div&gt;&lt;div&gt;&lt;font style=&quot;font-size: 18px;&quot;&gt;strong consistency?&lt;/font&gt;&lt;/div&gt;&lt;div&gt;&lt;font style=&quot;font-size: 18px;&quot;&gt;monitoring&lt;/font&gt;&lt;/div&gt;" style="text;html=1;align=center;verticalAlign=middle;resizable=0;points=[];autosize=1;strokeColor=none;fillColor=none;" parent="1" vertex="1">
          <mxGeometry x="-125" y="260" width="180" height="120" as="geometry" />
        </mxCell>
        <mxCell id="zLN3DuiSg5_N4A_2sXVN-4" value="100" style="text;html=1;align=center;verticalAlign=middle;resizable=0;points=[];autosize=1;strokeColor=none;fillColor=none;" parent="1" vertex="1">
          <mxGeometry x="-60" y="440" width="40" height="30" as="geometry" />
        </mxCell>
        <mxCell id="zLN3DuiSg5_N4A_2sXVN-5" value="Actor" style="shape=umlActor;verticalLabelPosition=bottom;verticalAlign=top;html=1;outlineConnect=0;" parent="1" vertex="1">
          <mxGeometry x="100" y="214" width="60" height="120" as="geometry" />
        </mxCell>
        <mxCell id="zLN3DuiSg5_N4A_2sXVN-12" style="edgeStyle=orthogonalEdgeStyle;rounded=0;orthogonalLoop=1;jettySize=auto;html=1;entryX=0;entryY=0.5;entryDx=0;entryDy=0;" parent="1" source="zLN3DuiSg5_N4A_2sXVN-6" target="zLN3DuiSg5_N4A_2sXVN-9" edge="1">
          <mxGeometry relative="1" as="geometry" />
        </mxCell>
        <mxCell id="zLN3DuiSg5_N4A_2sXVN-6" value="LB" style="rounded=0;whiteSpace=wrap;html=1;" parent="1" vertex="1">
          <mxGeometry x="230" y="250" width="120" height="60" as="geometry" />
        </mxCell>
        <mxCell id="zLN3DuiSg5_N4A_2sXVN-7" value="server" style="rounded=0;whiteSpace=wrap;html=1;" parent="1" vertex="1">
          <mxGeometry x="450" y="270" width="130" height="60" as="geometry" />
        </mxCell>
        <mxCell id="zLN3DuiSg5_N4A_2sXVN-8" value="server" style="rounded=0;whiteSpace=wrap;html=1;" parent="1" vertex="1">
          <mxGeometry x="430" y="250" width="120" height="60" as="geometry" />
        </mxCell>
        <mxCell id="zLN3DuiSg5_N4A_2sXVN-9" value="color service" style="rounded=0;whiteSpace=wrap;html=1;" parent="1" vertex="1">
          <mxGeometry x="414" y="230" width="120" height="60" as="geometry" />
        </mxCell>
        <mxCell id="zLN3DuiSg5_N4A_2sXVN-16" style="edgeStyle=orthogonalEdgeStyle;rounded=0;orthogonalLoop=1;jettySize=auto;html=1;entryX=1;entryY=0.5;entryDx=0;entryDy=0;" parent="1" source="zLN3DuiSg5_N4A_2sXVN-10" target="zLN3DuiSg5_N4A_2sXVN-14" edge="1">
          <mxGeometry relative="1" as="geometry">
            <Array as="points">
              <mxPoint x="630" y="330" />
              <mxPoint x="630" y="440" />
            </Array>
          </mxGeometry>
        </mxCell>
        <mxCell id="zLN3DuiSg5_N4A_2sXVN-10" value="DB" style="shape=cylinder3;whiteSpace=wrap;html=1;boundedLbl=1;backgroundOutline=1;size=15;" parent="1" vertex="1">
          <mxGeometry x="710" y="280" width="60" height="80" as="geometry" />
        </mxCell>
        <mxCell id="zLN3DuiSg5_N4A_2sXVN-11" style="edgeStyle=orthogonalEdgeStyle;rounded=0;orthogonalLoop=1;jettySize=auto;html=1;entryX=0.017;entryY=0.4;entryDx=0;entryDy=0;entryPerimeter=0;" parent="1" source="zLN3DuiSg5_N4A_2sXVN-5" target="zLN3DuiSg5_N4A_2sXVN-6" edge="1">
          <mxGeometry relative="1" as="geometry" />
        </mxCell>
        <mxCell id="zLN3DuiSg5_N4A_2sXVN-13" style="edgeStyle=orthogonalEdgeStyle;rounded=0;orthogonalLoop=1;jettySize=auto;html=1;entryX=0;entryY=0;entryDx=0;entryDy=52.5;entryPerimeter=0;" parent="1" source="zLN3DuiSg5_N4A_2sXVN-7" target="zLN3DuiSg5_N4A_2sXVN-10" edge="1">
          <mxGeometry relative="1" as="geometry" />
        </mxCell>
        <mxCell id="zLN3DuiSg5_N4A_2sXVN-19" style="edgeStyle=orthogonalEdgeStyle;rounded=0;orthogonalLoop=1;jettySize=auto;html=1;entryX=0.5;entryY=0;entryDx=0;entryDy=0;" parent="1" source="zLN3DuiSg5_N4A_2sXVN-14" target="zLN3DuiSg5_N4A_2sXVN-18" edge="1">
          <mxGeometry relative="1" as="geometry" />
        </mxCell>
        <mxCell id="zLN3DuiSg5_N4A_2sXVN-14" value="share service email" style="rounded=0;whiteSpace=wrap;html=1;" parent="1" vertex="1">
          <mxGeometry x="430" y="410" width="120" height="60" as="geometry" />
        </mxCell>
        <mxCell id="zLN3DuiSg5_N4A_2sXVN-15" style="edgeStyle=orthogonalEdgeStyle;rounded=0;orthogonalLoop=1;jettySize=auto;html=1;entryX=-0.017;entryY=0.617;entryDx=0;entryDy=0;entryPerimeter=0;" parent="1" source="zLN3DuiSg5_N4A_2sXVN-6" target="zLN3DuiSg5_N4A_2sXVN-14" edge="1">
          <mxGeometry relative="1" as="geometry">
            <Array as="points">
              <mxPoint x="380" y="280" />
              <mxPoint x="380" y="447" />
            </Array>
          </mxGeometry>
        </mxCell>
        <mxCell id="zLN3DuiSg5_N4A_2sXVN-18" value="email service" style="rounded=0;whiteSpace=wrap;html=1;" parent="1" vertex="1">
          <mxGeometry x="430" y="555" width="120" height="60" as="geometry" />
        </mxCell>
        <mxCell id="zLN3DuiSg5_N4A_2sXVN-20" value="MQ" style="rounded=1;whiteSpace=wrap;html=1;" parent="1" vertex="1">
          <mxGeometry x="435" y="500" width="110" height="30" as="geometry" />
        </mxCell>
        <mxCell id="zLN3DuiSg5_N4A_2sXVN-21" value="color RGB+?" style="text;html=1;align=center;verticalAlign=middle;resizable=0;points=[];autosize=1;strokeColor=none;fillColor=none;" parent="1" vertex="1">
          <mxGeometry x="180" y="110" width="90" height="30" as="geometry" />
        </mxCell>
        <mxCell id="zLN3DuiSg5_N4A_2sXVN-22" value="save color&lt;div&gt;{&lt;/div&gt;&lt;div&gt;&amp;nbsp; user_id:&lt;/div&gt;&lt;div&gt;req_id:&lt;/div&gt;&lt;div&gt;color_code:&lt;/div&gt;&lt;div&gt;}&lt;/div&gt;&lt;div&gt;&lt;br&gt;&lt;/div&gt;&lt;div&gt;&lt;br&gt;&lt;/div&gt;" style="text;html=1;align=center;verticalAlign=middle;resizable=0;points=[];autosize=1;strokeColor=none;fillColor=none;" parent="1" vertex="1">
          <mxGeometry x="265" y="48" width="90" height="130" as="geometry" />
        </mxCell>
        <mxCell id="zLN3DuiSg5_N4A_2sXVN-30" style="edgeStyle=orthogonalEdgeStyle;rounded=0;orthogonalLoop=1;jettySize=auto;html=1;" parent="1" source="zLN3DuiSg5_N4A_2sXVN-23" target="zLN3DuiSg5_N4A_2sXVN-28" edge="1">
          <mxGeometry relative="1" as="geometry" />
        </mxCell>
        <mxCell id="zLN3DuiSg5_N4A_2sXVN-23" value="&lt;font style=&quot;font-size: 18px;&quot;&gt;user table:&lt;/font&gt;&lt;div&gt;&lt;font style=&quot;font-size: 18px;&quot;&gt;user_id&lt;/font&gt;&lt;/div&gt;&lt;div&gt;&lt;font style=&quot;font-size: 18px;&quot;&gt;pass&lt;/font&gt;&lt;/div&gt;&lt;div&gt;&lt;font style=&quot;font-size: 18px;&quot;&gt;username&lt;/font&gt;&lt;/div&gt;&lt;div&gt;&lt;font style=&quot;font-size: 18px;&quot;&gt;email&lt;/font&gt;&lt;/div&gt;&lt;div&gt;&lt;font style=&quot;font-size: 18px;&quot;&gt;&lt;br&gt;&lt;/font&gt;&lt;/div&gt;" style="text;html=1;align=center;verticalAlign=middle;resizable=0;points=[];autosize=1;strokeColor=none;fillColor=none;" parent="1" vertex="1">
          <mxGeometry x="560" y="80" width="110" height="140" as="geometry" />
        </mxCell>
        <mxCell id="zLN3DuiSg5_N4A_2sXVN-24" value="share color&lt;div&gt;{&lt;/div&gt;&lt;div&gt;user_id:&lt;/div&gt;&lt;div&gt;color_id:&lt;/div&gt;&lt;div&gt;email:&lt;/div&gt;&lt;div&gt;}&lt;br&gt;&lt;div&gt;&lt;br&gt;&lt;/div&gt;&lt;/div&gt;" style="text;html=1;align=center;verticalAlign=middle;resizable=0;points=[];autosize=1;strokeColor=none;fillColor=none;" parent="1" vertex="1">
          <mxGeometry x="370" y="38" width="80" height="110" as="geometry" />
        </mxCell>
        <mxCell id="zLN3DuiSg5_N4A_2sXVN-32" style="edgeStyle=orthogonalEdgeStyle;rounded=0;orthogonalLoop=1;jettySize=auto;html=1;" parent="1" source="zLN3DuiSg5_N4A_2sXVN-27" target="zLN3DuiSg5_N4A_2sXVN-28" edge="1">
          <mxGeometry relative="1" as="geometry" />
        </mxCell>
        <mxCell id="zLN3DuiSg5_N4A_2sXVN-33" value="M" style="edgeLabel;html=1;align=center;verticalAlign=middle;resizable=0;points=[];" parent="zLN3DuiSg5_N4A_2sXVN-32" vertex="1" connectable="0">
          <mxGeometry x="-0.125" y="-1" relative="1" as="geometry">
            <mxPoint as="offset" />
          </mxGeometry>
        </mxCell>
        <mxCell id="zLN3DuiSg5_N4A_2sXVN-27" value="&lt;font style=&quot;font-size: 18px;&quot;&gt;color table:&lt;/font&gt;&lt;div&gt;&lt;span style=&quot;font-size: 18px;&quot;&gt;color_id&lt;/span&gt;&lt;/div&gt;&lt;div&gt;&lt;span style=&quot;font-size: 18px;&quot;&gt;color_code&lt;/span&gt;&lt;/div&gt;&lt;div&gt;&lt;span style=&quot;font-size: 18px;&quot;&gt;&lt;br&gt;&lt;/span&gt;&lt;/div&gt;&lt;div&gt;&lt;font style=&quot;font-size: 18px;&quot;&gt;&lt;br&gt;&lt;/font&gt;&lt;/div&gt;" style="text;html=1;align=center;verticalAlign=middle;resizable=0;points=[];autosize=1;strokeColor=none;fillColor=none;" parent="1" vertex="1">
          <mxGeometry x="990" y="90" width="110" height="120" as="geometry" />
        </mxCell>
        <mxCell id="zLN3DuiSg5_N4A_2sXVN-28" value="&lt;div&gt;&lt;font style=&quot;font-size: 18px;&quot;&gt;user_color table&lt;/font&gt;&lt;/div&gt;&lt;div&gt;&lt;font style=&quot;font-size: 18px;&quot;&gt;user_id&lt;/font&gt;&lt;/div&gt;&lt;div&gt;&lt;font style=&quot;font-size: 18px;&quot;&gt;color_id&lt;/font&gt;&lt;/div&gt;" style="text;html=1;align=center;verticalAlign=middle;resizable=0;points=[];autosize=1;strokeColor=none;fillColor=none;" parent="1" vertex="1">
          <mxGeometry x="760" y="110" width="150" height="80" as="geometry" />
        </mxCell>
        <mxCell id="zLN3DuiSg5_N4A_2sXVN-29" value="&lt;span style=&quot;font-size: 18px;&quot;&gt;user_share table&lt;/span&gt;&lt;div&gt;&lt;span style=&quot;font-size: 18px;&quot;&gt;user_id&lt;/span&gt;&lt;/div&gt;&lt;div&gt;&lt;span style=&quot;font-size: 18px; background-color: initial;&quot;&gt;share_user_id&lt;/span&gt;&lt;br&gt;&lt;/div&gt;&lt;div&gt;&lt;br&gt;&lt;/div&gt;" style="text;html=1;align=center;verticalAlign=middle;resizable=0;points=[];autosize=1;strokeColor=none;fillColor=none;" parent="1" vertex="1">
          <mxGeometry x="800" y="220" width="160" height="90" as="geometry" />
        </mxCell>
        <mxCell id="zLN3DuiSg5_N4A_2sXVN-31" value="N" style="text;html=1;align=center;verticalAlign=middle;resizable=0;points=[];autosize=1;strokeColor=none;fillColor=none;" parent="1" vertex="1">
          <mxGeometry x="705" y="125" width="30" height="30" as="geometry" />
        </mxCell>
        <mxCell id="zLN3DuiSg5_N4A_2sXVN-34" value="&lt;div&gt;&lt;span style=&quot;font-size: 18px;&quot;&gt;find what colors shared to cur user&lt;/span&gt;&lt;/div&gt;&lt;div&gt;&lt;span style=&quot;font-size: 18px;&quot;&gt;SELECT color_code&lt;/span&gt;&lt;/div&gt;&lt;div&gt;&lt;span style=&quot;font-size: 18px;&quot;&gt;FROM&amp;nbsp;&lt;/span&gt;&lt;span style=&quot;font-size: 18px; background-color: initial;&quot;&gt;user_share us&lt;/span&gt;&lt;/div&gt;&lt;div&gt;&lt;span style=&quot;font-size: 18px; background-color: initial;&quot;&gt;LEFT JOIN user_color uc&amp;nbsp;&lt;/span&gt;&lt;/div&gt;&lt;div&gt;&lt;span style=&quot;font-size: 18px; background-color: initial;&quot;&gt;LEFT color c on uc.color_id = c.color_id&lt;/span&gt;&lt;/div&gt;&lt;div&gt;&lt;span style=&quot;font-size: 18px; background-color: initial;&quot;&gt;on us.user_id = uc.user_id&lt;/span&gt;&lt;/div&gt;&lt;div&gt;&lt;span style=&quot;font-size: 18px; background-color: initial;&quot;&gt;WHERE us.share_user_id = {cur_user_id}&lt;/span&gt;&lt;/div&gt;&lt;div&gt;&lt;span style=&quot;font-size: 18px; background-color: initial;&quot;&gt;AND us.user_id = {}&lt;/span&gt;&lt;/div&gt;" style="text;html=1;align=center;verticalAlign=middle;resizable=0;points=[];autosize=1;strokeColor=none;fillColor=none;" parent="1" vertex="1">
          <mxGeometry x="790" y="334" width="360" height="190" as="geometry" />
        </mxCell>
        <mxCell id="zLN3DuiSg5_N4A_2sXVN-37" value="cache" style="rounded=1;whiteSpace=wrap;html=1;" parent="1" vertex="1">
          <mxGeometry x="620" y="330" width="80" height="30" as="geometry" />
        </mxCell>
      </root>
    </mxGraphModel>
  </diagram>
  <diagram id="tNSaKjRyca9ioWTmt0Qy" name="Page-2">
    <mxGraphModel dx="2336" dy="801" grid="1" gridSize="10" guides="1" tooltips="1" connect="1" arrows="1" fold="1" page="1" pageScale="1" pageWidth="827" pageHeight="1169" math="0" shadow="0">
      <root>
        <mxCell id="0" />
        <mxCell id="1" parent="0" />
        <mxCell id="W8x_KMGAN5yDJfOtQnQe-1" value="&lt;div style=&quot;text-align: left;&quot;&gt;&lt;span style=&quot;font-size: 18px; background-color: initial;&quot;&gt;FR&lt;/span&gt;&lt;/div&gt;&lt;div style=&quot;text-align: left;&quot;&gt;&lt;font style=&quot;font-size: 18px;&quot;&gt;add tag&lt;/font&gt;&lt;/div&gt;&lt;div style=&quot;text-align: left;&quot;&gt;&lt;font style=&quot;font-size: 18px;&quot;&gt;tag content{confluence, JIRA}&amp;nbsp;&lt;/font&gt;&lt;/div&gt;&lt;div style=&quot;text-align: left;&quot;&gt;&lt;font style=&quot;font-size: 18px;&quot;&gt;/ pick up existing tag&lt;/font&gt;&lt;/div&gt;&lt;div style=&quot;text-align: left;&quot;&gt;&lt;font style=&quot;font-size: 18px;&quot;&gt;search content by tag_name&lt;/font&gt;&lt;/div&gt;&lt;div style=&quot;text-align: left;&quot;&gt;&lt;font style=&quot;font-size: 18px;&quot;&gt;autocomplete&lt;/font&gt;&lt;/div&gt;&lt;div style=&quot;text-align: left;&quot;&gt;&lt;font style=&quot;font-size: 18px;&quot;&gt;&lt;br&gt;&lt;/font&gt;&lt;/div&gt;&lt;div style=&quot;text-align: left;&quot;&gt;&lt;font style=&quot;font-size: 18px;&quot;&gt;tag length 1000char=1KB&amp;nbsp;&lt;/font&gt;&lt;/div&gt;&lt;div style=&quot;text-align: left;&quot;&gt;&lt;font style=&quot;font-size: 18px;&quot;&gt;1b*1KB&lt;/font&gt;&lt;/div&gt;&lt;div style=&quot;text-align: left;&quot;&gt;&lt;font style=&quot;font-size: 18px;&quot;&gt;&lt;br&gt;&lt;/font&gt;&lt;/div&gt;&lt;div style=&quot;text-align: left;&quot;&gt;&lt;font style=&quot;font-size: 18px;&quot;&gt;NFR&lt;/font&gt;&lt;/div&gt;&lt;div style=&quot;text-align: left;&quot;&gt;&lt;font style=&quot;font-size: 18px;&quot;&gt;availability / consistency&lt;/font&gt;&lt;/div&gt;&lt;div style=&quot;text-align: left;&quot;&gt;&lt;font style=&quot;font-size: 18px;&quot;&gt;monitoring&lt;/font&gt;&lt;/div&gt;&lt;div style=&quot;text-align: left;&quot;&gt;&lt;span style=&quot;font-size: 18px;&quot;&gt;500 TPS&lt;/span&gt;&lt;/div&gt;&lt;div style=&quot;text-align: left;&quot;&gt;&lt;font style=&quot;font-size: 18px;&quot;&gt;&lt;br&gt;&lt;/font&gt;&lt;/div&gt;" style="text;html=1;align=center;verticalAlign=middle;whiteSpace=wrap;rounded=0;" vertex="1" parent="1">
          <mxGeometry x="-340" y="70" width="360" height="320" as="geometry" />
        </mxCell>
        <mxCell id="W8x_KMGAN5yDJfOtQnQe-2" value="Actor" style="shape=umlActor;verticalLabelPosition=bottom;verticalAlign=top;html=1;outlineConnect=0;" vertex="1" parent="1">
          <mxGeometry x="130" y="370" width="30" height="60" as="geometry" />
        </mxCell>
        <mxCell id="W8x_KMGAN5yDJfOtQnQe-3" value="LB" style="rounded=0;whiteSpace=wrap;html=1;" vertex="1" parent="1">
          <mxGeometry x="260" y="380" width="120" height="60" as="geometry" />
        </mxCell>
        <mxCell id="W8x_KMGAN5yDJfOtQnQe-4" value="tag service" style="rounded=1;whiteSpace=wrap;html=1;" vertex="1" parent="1">
          <mxGeometry x="490" y="310" width="120" height="60" as="geometry" />
        </mxCell>
        <mxCell id="W8x_KMGAN5yDJfOtQnQe-5" value="search content by tag" style="rounded=1;whiteSpace=wrap;html=1;" vertex="1" parent="1">
          <mxGeometry x="490" y="470" width="140" height="60" as="geometry" />
        </mxCell>
        <mxCell id="W8x_KMGAN5yDJfOtQnQe-6" value="Message Queue" style="shape=process;whiteSpace=wrap;html=1;backgroundOutline=1;" vertex="1" parent="1">
          <mxGeometry x="715" y="325" width="150" height="30" as="geometry" />
        </mxCell>
        <mxCell id="W8x_KMGAN5yDJfOtQnQe-7" value="NoSQL" style="shape=cylinder3;whiteSpace=wrap;html=1;boundedLbl=1;backgroundOutline=1;size=15;" vertex="1" parent="1">
          <mxGeometry x="1030" y="325" width="60" height="80" as="geometry" />
        </mxCell>
        <mxCell id="W8x_KMGAN5yDJfOtQnQe-8" value="NoSQL" style="shape=cylinder3;whiteSpace=wrap;html=1;boundedLbl=1;backgroundOutline=1;size=15;" vertex="1" parent="1">
          <mxGeometry x="760" y="630" width="60" height="80" as="geometry" />
        </mxCell>
        <mxCell id="W8x_KMGAN5yDJfOtQnQe-9" value="&lt;font style=&quot;font-size: 18px;&quot;&gt;key: tag_id, val: {content_id}&lt;/font&gt;" style="text;html=1;align=center;verticalAlign=middle;whiteSpace=wrap;rounded=0;" vertex="1" parent="1">
          <mxGeometry x="650" y="730" width="320" height="30" as="geometry" />
        </mxCell>
        <mxCell id="W8x_KMGAN5yDJfOtQnQe-10" value="&lt;font style=&quot;font-size: 18px;&quot;&gt;key: content_id, val: {tag_id}&lt;/font&gt;" style="text;html=1;align=center;verticalAlign=middle;whiteSpace=wrap;rounded=0;" vertex="1" parent="1">
          <mxGeometry x="921" y="410" width="320" height="30" as="geometry" />
        </mxCell>
        <mxCell id="W8x_KMGAN5yDJfOtQnQe-11" value="Message Queue" style="shape=process;whiteSpace=wrap;html=1;backgroundOutline=1;" vertex="1" parent="1">
          <mxGeometry x="710" y="490" width="150" height="30" as="geometry" />
        </mxCell>
        <mxCell id="W8x_KMGAN5yDJfOtQnQe-12" value="SQL&lt;div&gt;tag table&lt;/div&gt;" style="shape=cylinder3;whiteSpace=wrap;html=1;boundedLbl=1;backgroundOutline=1;size=15;" vertex="1" parent="1">
          <mxGeometry x="921" y="200" width="60" height="80" as="geometry" />
        </mxCell>
        <mxCell id="W8x_KMGAN5yDJfOtQnQe-13" value="Actor" style="shape=umlActor;verticalLabelPosition=bottom;verticalAlign=top;html=1;outlineConnect=0;" vertex="1" parent="1">
          <mxGeometry x="80" y="1320" width="30" height="60" as="geometry" />
        </mxCell>
        <mxCell id="W8x_KMGAN5yDJfOtQnQe-14" value="LB" style="rounded=0;whiteSpace=wrap;html=1;" vertex="1" parent="1">
          <mxGeometry x="210" y="1330" width="120" height="60" as="geometry" />
        </mxCell>
        <mxCell id="W8x_KMGAN5yDJfOtQnQe-48" style="edgeStyle=orthogonalEdgeStyle;rounded=0;orthogonalLoop=1;jettySize=auto;html=1;curved=1;" edge="1" parent="1" source="W8x_KMGAN5yDJfOtQnQe-15" target="W8x_KMGAN5yDJfOtQnQe-47">
          <mxGeometry relative="1" as="geometry" />
        </mxCell>
        <mxCell id="W8x_KMGAN5yDJfOtQnQe-15" value="tag service" style="rounded=1;whiteSpace=wrap;html=1;" vertex="1" parent="1">
          <mxGeometry x="440" y="1260" width="120" height="60" as="geometry" />
        </mxCell>
        <mxCell id="W8x_KMGAN5yDJfOtQnQe-16" value="search content by tag" style="rounded=1;whiteSpace=wrap;html=1;" vertex="1" parent="1">
          <mxGeometry x="440" y="1420" width="140" height="60" as="geometry" />
        </mxCell>
        <mxCell id="W8x_KMGAN5yDJfOtQnQe-23" value="SQL&lt;div&gt;tag table&lt;/div&gt;" style="shape=cylinder3;whiteSpace=wrap;html=1;boundedLbl=1;backgroundOutline=1;size=15;" vertex="1" parent="1">
          <mxGeometry x="960" y="1200" width="70" height="120" as="geometry" />
        </mxCell>
        <mxCell id="W8x_KMGAN5yDJfOtQnQe-24" value="SQL&lt;div&gt;content table&lt;/div&gt;" style="shape=cylinder3;whiteSpace=wrap;html=1;boundedLbl=1;backgroundOutline=1;size=15;" vertex="1" parent="1">
          <mxGeometry x="1080" y="1200" width="120" height="120" as="geometry" />
        </mxCell>
        <mxCell id="W8x_KMGAN5yDJfOtQnQe-25" value="SQL&lt;div&gt;content_tag_rel table&lt;/div&gt;" style="shape=cylinder3;whiteSpace=wrap;html=1;boundedLbl=1;backgroundOutline=1;size=15;" vertex="1" parent="1">
          <mxGeometry x="1241" y="1200" width="100" height="120" as="geometry" />
        </mxCell>
        <mxCell id="W8x_KMGAN5yDJfOtQnQe-32" value="NoSQL&lt;div&gt;tag_content_rel table&lt;/div&gt;" style="shape=cylinder3;whiteSpace=wrap;html=1;boundedLbl=1;backgroundOutline=1;size=15;" vertex="1" parent="1">
          <mxGeometry x="1031" y="1510" width="100" height="120" as="geometry" />
        </mxCell>
        <mxCell id="W8x_KMGAN5yDJfOtQnQe-39" style="edgeStyle=orthogonalEdgeStyle;rounded=0;orthogonalLoop=1;jettySize=auto;html=1;" edge="1" parent="1" source="W8x_KMGAN5yDJfOtQnQe-35" target="W8x_KMGAN5yDJfOtQnQe-36">
          <mxGeometry relative="1" as="geometry" />
        </mxCell>
        <mxCell id="W8x_KMGAN5yDJfOtQnQe-35" value="tag service" style="rounded=1;whiteSpace=wrap;html=1;" vertex="1" parent="1">
          <mxGeometry x="222" y="899" width="120" height="60" as="geometry" />
        </mxCell>
        <mxCell id="W8x_KMGAN5yDJfOtQnQe-36" value="SQL&lt;div&gt;content table&lt;/div&gt;" style="shape=cylinder3;whiteSpace=wrap;html=1;boundedLbl=1;backgroundOutline=1;size=15;" vertex="1" parent="1">
          <mxGeometry x="484" y="869" width="120" height="120" as="geometry" />
        </mxCell>
        <mxCell id="W8x_KMGAN5yDJfOtQnQe-38" value="search content by tag" style="rounded=1;whiteSpace=wrap;html=1;" vertex="1" parent="1">
          <mxGeometry x="222" y="1029" width="140" height="60" as="geometry" />
        </mxCell>
        <mxCell id="W8x_KMGAN5yDJfOtQnQe-40" style="edgeStyle=orthogonalEdgeStyle;rounded=0;orthogonalLoop=1;jettySize=auto;html=1;entryX=0.5;entryY=1;entryDx=0;entryDy=0;entryPerimeter=0;" edge="1" parent="1" source="W8x_KMGAN5yDJfOtQnQe-38" target="W8x_KMGAN5yDJfOtQnQe-36">
          <mxGeometry relative="1" as="geometry" />
        </mxCell>
        <mxCell id="W8x_KMGAN5yDJfOtQnQe-41" value="Actor" style="shape=umlActor;verticalLabelPosition=bottom;verticalAlign=top;html=1;outlineConnect=0;" vertex="1" parent="1">
          <mxGeometry x="100" y="929" width="30" height="60" as="geometry" />
        </mxCell>
        <mxCell id="W8x_KMGAN5yDJfOtQnQe-43" value="agg service" style="rounded=1;whiteSpace=wrap;html=1;" vertex="1" parent="1">
          <mxGeometry x="1180" y="1540" width="140" height="60" as="geometry" />
        </mxCell>
        <mxCell id="W8x_KMGAN5yDJfOtQnQe-46" value="Message Queue" style="shape=process;whiteSpace=wrap;html=1;backgroundOutline=1;rotation=-90;" vertex="1" parent="1">
          <mxGeometry x="1216" y="1420" width="150" height="30" as="geometry" />
        </mxCell>
        <mxCell id="W8x_KMGAN5yDJfOtQnQe-47" value="cache" style="rhombus;whiteSpace=wrap;html=1;" vertex="1" parent="1">
          <mxGeometry x="920" y="1320" width="80" height="80" as="geometry" />
        </mxCell>
        <mxCell id="W8x_KMGAN5yDJfOtQnQe-49" style="edgeStyle=orthogonalEdgeStyle;rounded=0;orthogonalLoop=1;jettySize=auto;html=1;entryX=-0.016;entryY=0.422;entryDx=0;entryDy=0;entryPerimeter=0;curved=1;" edge="1" parent="1" source="W8x_KMGAN5yDJfOtQnQe-16" target="W8x_KMGAN5yDJfOtQnQe-47">
          <mxGeometry relative="1" as="geometry" />
        </mxCell>
        <mxCell id="W8x_KMGAN5yDJfOtQnQe-50" value="tag service" style="rounded=1;whiteSpace=wrap;html=1;" vertex="1" parent="1">
          <mxGeometry x="413" y="1240" width="120" height="60" as="geometry" />
        </mxCell>
        <mxCell id="W8x_KMGAN5yDJfOtQnQe-51" value="search content by tag" style="rounded=1;whiteSpace=wrap;html=1;" vertex="1" parent="1">
          <mxGeometry x="420" y="1400" width="140" height="60" as="geometry" />
        </mxCell>
      </root>
    </mxGraphModel>
  </diagram>
</mxfile>
